# xmcd
#
# Track frame offsets: 
#        150
#        24967
#        47667
#        63710
#        76517
#        89832
#        106437
#        116935
#        130240
#        141757
#        154927
#        176552
#        181987
#        197652
#        217762
#
# Disc length: 3173 seconds
#
# Revision: 2
# Processed by: cddbd v1.4PL0 Copyright (c) Steve Scherf et al.
# Submitted via: ExactAudioCopy v0.90b4
#
DISCID=cf0c630f
DTITLE=David Allan Coe - Live - If That Ain't Country
DYEAR=1997
DGENRE=Country
TTITLE0=Talkin' To The Blues
TTITLE1=Soul Shine
TTITLE2=Willie, Waylon and Me
TTITLE3=The Ghost of Hank Williams
TTITLE4=There's No Holes In These Hands
TTITLE5=Desperate Man
TTITLE6=Long Haired Redneck
TTITLE7=Jack Daniels, Jack Daniels, Jack Daniels Please
TTITLE8=Take This Job And Shove It
TTITLE9=The Ride
TTITLE10=You Never Even Called  Me By My Name
TTITLE11=Would You Lay With Me (In A Field Of Stone)
TTITLE12=When I Was A Young Man
TTITLE13=If That Ain't Country - Part 2
TTITLE14=Son Of The South
EXTD=
EXTT0=
EXTT1=
EXTT2=
EXTT3=
EXTT4=
EXTT5=
EXTT6=
EXTT7=
EXTT8=
EXTT9=
EXTT10=
EXTT11=
EXTT12=
EXTT13=
EXTT14=
PLAYORDER=
